<svg xmlns="http://www.w3.org/2000/svg" viewBox="39.333 0 44.1697 28" data-ligne-id="BUS216" class=""><g><path fill="#B90845" class="picto-outline" d="M39.333,0h44.1697v28h-44.1697V0.7z"/><path fill="#FFFFFF" d="M43.22 22.20L53.84 22.20L53.84 19.77L46.44 19.77C46.48 19.07 46.61 18.51 47.93 17.51L50.34 15.71C52.47 14.10 53.58 12.82 53.58 10.11C53.58 7.07 51.28 5.39 47.98 5.39C46.50 5.39 44.59 5.92 43.07 6.83L44.03 8.89C44.83 8.46 46.37 7.85 47.76 7.85C49.24 7.85 50.54 8.48 50.54 10.50C50.54 11.95 49.71 12.84 48.28 13.91L46.28 15.40C44.13 17.03 43.22 18.38 43.22 20.07ZM56.21 22.20L66.59 22.20L66.59 19.92L63.26 19.92L63.26 5.59L60.83 5.59L55.47 8.52L56.51 10.54L60.35 8.37L60.35 19.92L56.21 19.92ZM73.66 22.40C76.96 22.40 79.07 20.05 79.07 16.71C79.07 13.12 76.64 12.28 74.88 12.28C73.32 12.28 71.88 12.95 71.30 13.32C71.56 9.56 73.25 7.83 75.68 7.83C76.57 7.83 77.18 8.07 77.66 8.30L78.42 6.05C77.66 5.68 76.44 5.39 75.23 5.39C70.60 5.39 68.28 9.41 68.28 14.84C68.28 19.31 69.86 22.40 73.66 22.40ZM73.86 20.09C72.01 20.09 71.30 18.57 71.30 15.53C72.17 15.06 73.19 14.82 74.01 14.82C75.47 14.82 76.10 15.56 76.10 17.23C76.10 18.88 75.49 20.09 73.86 20.09Z"/></g></svg>