<svg xmlns="http://www.w3.org/2000/svg" viewBox="39.333 0 44.1697 28" data-ligne-id="BUS218" class=""><g><path fill="#6E8997" class="picto-outline" d="M39.333,0h44.1697v28h-44.1697V0.7z"/><path fill="#FFFFFF" d="M43.22 22.21L53.87 22.21L53.87 19.77L46.44 19.77C46.49 19.08 46.62 18.51 47.95 17.51L50.36 15.70C52.49 14.09 53.60 12.81 53.60 10.09C53.60 7.04 51.30 5.36 47.99 5.36C46.51 5.36 44.59 5.89 43.07 6.80L44.03 8.87C44.83 8.43 46.38 7.82 47.77 7.82C49.25 7.82 50.56 8.45 50.56 10.48C50.56 11.94 49.73 12.83 48.29 13.90L46.29 15.40C44.14 17.03 43.22 18.38 43.22 20.08ZM56.24 22.21L66.64 22.21L66.64 19.92L63.31 19.92L63.31 5.56L60.87 5.56L55.50 8.50L56.54 10.52L60.40 8.35L60.40 19.92L56.24 19.92ZM68.30 17.79C68.30 20.16 69.82 22.38 73.39 22.38C77.16 22.38 79.07 19.92 79.07 17.29C79.07 15.29 77.98 13.90 75.94 12.98C77.18 12.39 78.40 11.24 78.40 9.33C78.40 6.93 76.72 5.36 73.82 5.36C71.04 5.36 68.78 7.08 68.78 9.98C68.78 11.26 69.21 12.52 71.00 13.61C69.58 14.40 68.30 15.62 68.30 17.79ZM73.69 12.20C72.19 11.57 71.93 10.72 71.93 9.85C71.93 8.24 72.80 7.67 73.78 7.67C74.96 7.67 75.39 8.45 75.39 9.56C75.39 10.74 74.89 11.61 73.69 12.20ZM71.41 17.70C71.41 16.46 71.93 15.33 72.95 14.72C74.85 15.40 75.98 15.99 75.98 17.73C75.98 19.16 75.20 20.21 73.72 20.21C72.43 20.21 71.41 19.42 71.41 17.70Z"/></g></svg>