<svg xmlns="http://www.w3.org/2000/svg" viewBox="39.333 0 44.1697 28" data-ligne-id="BUS86" class=""><g><path class="picto-outline" fill="#E30613" d="M39.333,0h44.1697v28h-44.1697V0.7z"/><path fill="#FFFFFF" d="M40.733,1.4h41.3v25.2h-41.3V1.4z"/><path fill="#E30613" d="M47.57 18.44C47.57 21.18 49.33 23.74 53.45 23.74C57.80 23.74 60.01 20.90 60.01 17.86C60.01 15.55 58.76 13.94 56.40 12.88C57.83 12.20 59.24 10.87 59.24 8.66C59.24 5.90 57.30 4.09 53.96 4.09C50.74 4.09 48.13 6.07 48.13 9.41C48.13 10.90 48.63 12.36 50.69 13.61C49.06 14.52 47.57 15.92 47.57 18.44ZM53.81 11.98C52.07 11.25 51.77 10.27 51.77 9.26C51.77 7.40 52.78 6.75 53.91 6.75C55.26 6.75 55.77 7.66 55.77 8.94C55.77 10.29 55.19 11.30 53.81 11.98ZM51.17 18.34C51.17 16.90 51.77 15.60 52.95 14.89C55.14 15.67 56.45 16.35 56.45 18.36C56.45 20.02 55.54 21.23 53.83 21.23C52.35 21.23 51.17 20.32 51.17 18.34ZM68.31 23.77C72.13 23.77 74.57 21.05 74.57 17.18C74.57 13.03 71.75 12.05 69.72 12.05C67.91 12.05 66.25 12.83 65.57 13.26C65.87 8.91 67.83 6.90 70.65 6.90C71.68 6.90 72.38 7.18 72.93 7.45L73.81 4.84C72.93 4.41 71.53 4.09 70.12 4.09C64.77 4.09 62.08 8.74 62.08 15.02C62.08 20.20 63.91 23.77 68.31 23.77ZM68.54 21.10C66.40 21.10 65.57 19.34 65.57 15.82C66.57 15.27 67.76 14.99 68.71 14.99C70.40 14.99 71.12 15.85 71.12 17.78C71.12 19.69 70.42 21.10 68.54 21.10Z"/></g></svg>